<svg width="24" height="24" viewBox="0 0 24 24" fill="none" xmlns="http://www.w3.org/2000/svg">
<path d="M9 8.25C8.58579 8.25 8.25 8.58579 8.25 9C8.25 9.41421 8.58579 9.75 9 9.75V8.25ZM15 9.75C15.4142 9.75 15.75 9.41421 15.75 9C15.75 8.58579 15.4142 8.25 15 8.25V9.75ZM9 12.25C8.58579 12.25 8.25 12.5858 8.25 13C8.25 13.4142 8.58579 13.75 9 13.75V12.25ZM15 13.75C15.4142 13.75 15.75 13.4142 15.75 13C15.75 12.5858 15.4142 12.25 15 12.25V13.75ZM9 16.25C8.58579 16.25 8.25 16.5858 8.25 17C8.25 17.4142 8.58579 17.75 9 17.75V16.25ZM13 17.75C13.4142 17.75 13.75 17.4142 13.75 17C13.75 16.5858 13.4142 16.25 13 16.25V17.75ZM5.58579 20.4142L5.05546 20.9445H5.05546L5.58579 20.4142ZM18.4142 20.4142L18.9445 20.9445L18.4142 20.4142ZM18.4142 4.58579L18.9445 4.05546L18.4142 4.58579ZM9 4.75H15V3.25H9V4.75ZM18.25 8V17H19.75V8H18.25ZM15 20.25H9V21.75H15V20.25ZM5.75 17V8H4.25V17H5.75ZM9 9.75H15V8.25H9V9.75ZM9 13.75H15V12.25H9V13.75ZM9 17.75H13V16.25H9V17.75ZM9 20.25C8.03599 20.25 7.38843 20.2484 6.90539 20.1835C6.44393 20.1214 6.24643 20.0142 6.11612 19.8839L5.05546 20.9445C5.51093 21.4 6.07773 21.5857 6.70552 21.6701C7.31174 21.7516 8.07839 21.75 9 21.75V20.25ZM4.25 17C4.25 17.9216 4.24841 18.6883 4.32991 19.2945C4.41432 19.9223 4.59999 20.4891 5.05546 20.9445L6.11612 19.8839C5.9858 19.7536 5.87858 19.5561 5.81654 19.0946C5.75159 18.6116 5.75 17.964 5.75 17H4.25ZM18.25 17C18.25 17.964 18.2484 18.6116 18.1835 19.0946C18.1214 19.5561 18.0142 19.7536 17.8839 19.8839L18.9445 20.9445C19.4 20.4891 19.5857 19.9223 19.6701 19.2945C19.7516 18.6883 19.75 17.9216 19.75 17H18.25ZM15 21.75C15.9216 21.75 16.6883 21.7516 17.2945 21.6701C17.9223 21.5857 18.4891 21.4 18.9445 20.9445L17.8839 19.8839C17.7536 20.0142 17.5561 20.1214 17.0946 20.1835C16.6116 20.2484 15.964 20.25 15 20.25V21.75ZM15 4.75C15.964 4.75 16.6116 4.75159 17.0946 4.81654C17.5561 4.87858 17.7536 4.9858 17.8839 5.11612L18.9445 4.05546C18.4891 3.59999 17.9223 3.41432 17.2945 3.32991C16.6883 3.24841 15.9216 3.25 15 3.25V4.75ZM19.75 8C19.75 7.07839 19.7516 6.31174 19.6701 5.70552C19.5857 5.07773 19.4 4.51093 18.9445 4.05546L17.8839 5.11612C18.0142 5.24643 18.1214 5.44393 18.1835 5.90539C18.2484 6.38843 18.25 7.03599 18.25 8H19.75ZM9 3.25C8.07839 3.25 7.31174 3.24841 6.70552 3.32991C6.07773 3.41432 5.51093 3.59999 5.05546 4.05546L6.11612 5.11612C6.24643 4.9858 6.44393 4.87858 6.90539 4.81654C7.38843 4.75159 8.03599 4.75 9 4.75V3.25ZM5.75 8C5.75 7.03599 5.75159 6.38843 5.81654 5.90539C5.87858 5.44393 5.9858 5.24643 6.11612 5.11612L5.05546 4.05546C4.59999 4.51093 4.41432 5.07773 4.32991 5.70552C4.24841 6.31174 4.25 7.07839 4.25 8H5.75Z" fill="#154385"/>
</svg>
